<svg width="40" height="40" viewBox="0 0 40 40" fill="none" xmlns="http://www.w3.org/2000/svg">
<mask id="mask0_8_1322" style="mask-type:alpha" maskUnits="userSpaceOnUse" x="0" y="0" width="40" height="40">
<circle cx="20" cy="20" r="20" fill="#D9D9D9"/>
</mask>
<g mask="url(#mask0_8_1322)">
<path d="M1.17113 66.207H-49.3755C-49.7715 66.2062 -50.151 66.028 -50.4308 65.7116C-50.7106 65.3951 -50.8677 64.9662 -50.8677 64.5191V-15.7181C-50.8642 -16.1627 -50.7056 -16.5878 -50.4262 -16.9011C-50.1468 -17.2144 -49.7693 -17.3905 -49.3755 -17.3913H1.17113C1.56756 -17.3913 1.94776 -17.2135 2.22808 -16.8969C2.5084 -16.5804 2.66588 -16.151 2.66588 -15.7034V64.5191C2.66588 64.9667 2.5084 65.396 2.22808 65.7126C1.94776 66.0291 1.56756 66.207 1.17113 66.207ZM-49.3755 -17.3322C-49.7542 -17.3314 -50.117 -17.161 -50.3845 -16.8584C-50.652 -16.5558 -50.8022 -16.1457 -50.8022 -15.7181V64.5191C-50.8022 64.9466 -50.652 65.3567 -50.3845 65.6593C-50.117 65.9619 -49.7542 66.1323 -49.3755 66.1331H1.17113C1.54978 66.1315 1.91253 65.961 2.18027 65.6586C2.44802 65.3563 2.59906 64.9466 2.60044 64.5191V-15.7181C2.59906 -16.1457 2.44802 -16.5554 2.18027 -16.8577C1.91253 -17.1601 1.54978 -17.3306 1.17113 -17.3322H-49.3755Z" fill="#EBEBEB"/>
<path d="M57.7972 66.207H7.24792C6.85191 66.2054 6.47252 66.0271 6.1925 65.7109C5.91248 65.3947 5.75455 64.9662 5.75317 64.5191V-15.7181C5.75731 -16.163 5.91653 -16.5881 6.19633 -16.9013C6.47613 -17.2145 6.85396 -17.3905 7.24792 -17.3913H57.7972C58.1905 -17.3898 58.5674 -17.2133 58.8462 -16.9001C59.125 -16.5869 59.2833 -16.1622 59.2867 -15.7181V64.5191C59.2871 64.7403 59.2488 64.9595 59.1741 65.1641C59.0995 65.3687 58.9899 65.5546 58.8515 65.7114C58.7132 65.8681 58.5489 65.9925 58.368 66.0776C58.1871 66.1626 57.9932 66.2066 57.7972 66.207ZM7.24792 -17.3322C6.86927 -17.3306 6.50652 -17.1601 6.23877 -16.8577C5.97103 -16.5554 5.82 -16.1457 5.81862 -15.7181V64.5191C5.82 64.9466 5.97103 65.3563 6.23877 65.6586C6.50652 65.961 6.86927 66.1315 7.24792 66.1331H57.7972C58.1759 66.1315 58.5386 65.961 58.8064 65.6586C59.0741 65.3563 59.2251 64.9466 59.2265 64.5191V-15.7181C59.2251 -16.1457 59.0741 -16.5554 58.8064 -16.8577C58.5386 -17.1601 58.1759 -17.3306 57.7972 -17.3322H7.24792Z" fill="#EBEBEB"/>
<path d="M56.6247 -1.57031H15.557V24.6502H56.6247V-1.57031Z" fill="#E0E0E0"/>
<path d="M55.5511 -1.57031H14.4834V24.6502H55.5511V-1.57031Z" fill="#F0F0F0"/>
<path d="M53.8231 0.410248H16.0852V22.7967H53.8231V0.410248Z" fill="#F5F5F5"/>
<path d="M16.4962 0.410248H16.0852V22.7967H16.4962V0.410248Z" fill="#E0E0E0"/>
<path d="M28.8671 13.2723L39.0188 14.4252L38.3984 18.9834L28.6237 17.6621L28.8671 13.2723Z" fill="#FAFAFA"/>
<path d="M38.4875 15.2616C38.4875 15.302 38.4769 15.3414 38.457 15.375C38.4372 15.4085 38.409 15.4347 38.376 15.4501C38.343 15.4655 38.3067 15.4696 38.2716 15.4617C38.2366 15.4538 38.2044 15.4344 38.1791 15.4059C38.1539 15.3774 38.1367 15.341 38.1297 15.3014C38.1227 15.2619 38.1263 15.2209 38.14 15.1836C38.1536 15.1463 38.1768 15.1145 38.2065 15.0921C38.2362 15.0696 38.2711 15.0577 38.3068 15.0577C38.3547 15.0577 38.4007 15.0792 38.4346 15.1174C38.4684 15.1557 38.4875 15.2076 38.4875 15.2616Z" fill="#E6E6E6"/>
<path d="M34.4171 46.0227L36.6606 33.075H47.1657L44.9825 46.0227H34.4171Z" fill="#EBEBEB"/>
<path d="M36.0173 44.3999L37.698 34.698H45.5696L43.9335 44.3999H36.0173Z" fill="#FAFAFA"/>
<path d="M38.1037 34.698L36.4754 44.3999H36.0173L37.698 34.698H38.1037Z" fill="#E6E6E6"/>
<path d="M23.9989 -4.00613V31.4049C23.9992 31.9801 23.8992 32.5497 23.7045 33.0812C23.5098 33.6127 23.2243 34.0956 22.8643 34.5025C22.5042 34.9093 22.0767 35.2321 21.6062 35.4523C21.1356 35.6725 20.6313 35.7858 20.1219 35.7858H17.0094V-4.00613H23.9989Z" fill="#407BFF"/>
<path opacity="0.8" d="M23.9989 -4.00613V31.4049C23.9992 31.9801 23.8992 32.5497 23.7045 33.0812C23.5098 33.6127 23.2243 34.0956 22.8643 34.5025C22.5042 34.9093 22.0767 35.2321 21.6062 35.4523C21.1356 35.6725 20.6313 35.7858 20.1219 35.7858H17.0094V-4.00613H23.9989Z" fill="white"/>
<path d="M23.9991 -6.69622V31.4048C23.9995 31.98 23.8994 32.5496 23.7048 33.0811C23.5101 33.6126 23.2246 34.0956 22.8645 34.5024C22.5045 34.9093 22.077 35.232 21.6064 35.4522C21.1359 35.6724 20.6315 35.7858 20.1222 35.7858H-34.6758C-35.7047 35.7858 -36.6914 35.3242 -37.419 34.5026C-38.1466 33.681 -38.5553 32.5667 -38.5553 31.4048V-6.69622C-38.5556 -7.27164 -38.4555 -7.84149 -38.2607 -8.37319C-38.0658 -8.90488 -37.7801 -9.38799 -37.4198 -9.79487C-37.0595 -10.2018 -36.6316 -10.5244 -36.1608 -10.7445C-35.69 -10.9645 -35.1853 -11.0775 -34.6758 -11.0771H20.1222C20.6315 -11.0771 21.1359 -10.9638 21.6064 -10.7436C22.077 -10.5234 22.5045 -10.2007 22.8645 -9.79382C23.2246 -9.38698 23.5101 -8.90401 23.7048 -8.37251C23.8994 -7.841 23.9995 -7.27139 23.9991 -6.69622Z" fill="white" stroke="#407BFF" stroke-miterlimit="10"/>
<path opacity="0.1" d="M14.5565 -1.18597H-28.6865V31.7715H14.5565V-1.18597Z" fill="#407BFF"/>
<path d="M-2.73842 15.1612C-1.15466 12.8436 -0.120639 9.80176 -0.335297 6.83089C-0.536866 4.04329 -2.529 2.34354 -4.94782 3.01161C-5.96876 3.30722 -6.9033 3.86888 -7.8457 4.39802C-9.41637 5.28485 -11.0708 6.04161 -12.8195 6.28105C-14.5682 6.5205 -16.2985 6.28105 -18.0027 7.03486C-20.9686 8.34145 -21.7932 12.6219 -20.6493 15.7258C-19.6336 18.4808 -17.2147 20.6092 -14.6415 21.2004" stroke="#263238" stroke-linecap="round" stroke-linejoin="round"/>
<path d="M17.1655 36.1406C17.1655 36.1406 15.8305 43.4185 14.9273 45.2779C14.0242 47.1372 8.84624 47.0515 8.84624 47.0515L2.85152 46.7145C2.85152 46.7145 1.71017 42.4962 6.59757 44.6837C6.59757 44.6837 10.7206 43.7969 12.2938 42.3188L13.943 34.6832L17.1655 36.1406Z" fill="#FF8B7B"/>
<path d="M17.1655 49.0055C17.1655 49.0055 15.443 36.1406 15.0713 33.0101C14.6995 29.8796 15.0713 28.2803 16.1184 27.2546C17.1655 26.2288 21.9665 24.0383 25.189 24.6296C28.4115 25.2208 29.9847 28.2685 30.4245 31.7242L29.6758 32.1469C29.6758 32.1469 30.634 44.1368 30.2858 48.2842L17.1655 49.0055Z" fill="#407BFF"/>
<path d="M16.1158 27.2457C16.1158 27.2457 13.5687 29.785 13.5687 34.6921L17.5399 36.4096L16.1158 27.2457Z" fill="#407BFF"/>
<path d="M29.7371 32.0995C29.7371 32.0995 31.1795 37.858 30.7842 40.2377C30.3889 42.6173 26.8 45.8099 21.8105 46.8741C21.8105 46.8741 19.5932 47.3116 18.3158 46.1232L16.376 45.4966L16.931 43.5544C18.4093 43.584 19.865 43.97 21.2005 44.6866C21.2005 44.6866 25.9675 42.2449 27.4649 40.3677C27.4649 40.3677 27.2973 36.5485 26.4675 33.8643L29.7371 32.0995Z" fill="#FF8B7B"/>
<path d="M13.3256 19.3175C12.9807 20.4537 13.0237 21.6944 13.446 22.7968C13.2498 21.9175 13.2862 20.9925 13.5507 20.1363C13.8125 19.3264 14.2444 18.6139 14.5795 17.8454C14.9146 17.0768 15.1423 16.1811 14.9198 15.3622C14.8727 15.1997 14.768 15.0105 14.6187 15.0371C14.4695 15.0637 14.4381 15.2056 14.3962 15.3327C14.2518 15.6695 14.1412 16.0235 14.0664 16.388C14.0298 16.6688 14.0664 16.9467 14.0297 17.2334C13.9067 17.9547 13.5428 18.611 13.3256 19.3175Z" fill="#263238"/>
<path d="M14.8678 16.8255C14.6668 16.9112 14.491 17.0588 14.3605 17.2516C14.23 17.4445 14.15 17.6747 14.1296 17.9163C13.7394 17.6324 13.4492 17.2036 13.3091 16.7038C13.1691 16.204 13.188 15.6647 13.3626 15.179C13.9673 13.4053 14.7867 10.8897 17.2264 11.2562C19.6662 11.6228 24.7814 12.4387 22.9489 18.5932C21.1165 24.7478 19.2997 17.2305 19.2997 17.2305L14.8678 16.8255Z" fill="#263238"/>
<path d="M20.206 28.3276C17.9835 28.1709 18.9259 26.0071 19.028 25.206C19.055 24.8565 18.9875 24.506 18.8343 24.2009C18.7307 23.9743 18.6042 23.762 18.4573 23.5683C17.4835 23.5683 16.405 23.4205 15.6327 22.6815C14.7689 21.8685 14.4259 20.3521 14.2846 19.1489C14.1737 18.0359 14.1544 16.9137 14.227 15.7967C14.227 15.6312 14.2479 15.4686 14.2532 15.306C14.2872 14.6645 14.3238 14.026 14.3448 13.3993C14.3448 13.3993 16.4992 12.8643 18.4233 13.3609C19.8474 13.7275 20.8473 15.0636 21.2793 17.1654C21.4383 17.9659 21.5182 18.7838 21.5175 19.6042C21.5568 23.0983 22.7688 23.7102 23.2426 24.7359C23.7164 25.7617 22.4337 28.4754 20.206 28.3276Z" fill="#FF8B7B"/>
<path d="M16.234 19.9057L15.7104 17.6562L15.3518 20.021C15.3518 20.021 15.6424 20.29 16.234 19.9057Z" fill="#FF5652"/>
<path d="M17.7739 20.29C17.7739 20.29 17.4467 21.0823 16.4048 21.2212" stroke="#263238" stroke-width="0.5" stroke-linecap="round" stroke-linejoin="round"/>
<path d="M17.6637 16.4796C17.5216 16.3031 17.3349 16.18 17.1289 16.1272C16.9229 16.0743 16.7075 16.0941 16.5118 16.184" stroke="#263238" stroke-width="0.75" stroke-linecap="round" stroke-linejoin="round"/>
<path d="M16.8371 17.5822C16.8554 17.8099 16.9732 17.9843 17.0989 17.9724C17.2246 17.9606 17.3136 17.7655 17.2979 17.5379C17.2821 17.3103 17.1617 17.1359 17.0361 17.1477C16.9104 17.1595 16.8214 17.3546 16.8371 17.5822Z" fill="#263238"/>
<path d="M14.5225 18.2266C14.5408 18.4542 14.6586 18.6286 14.7842 18.6168C14.9099 18.605 14.9989 18.4099 14.9832 18.1823C14.9675 17.9546 14.8471 17.7773 14.7214 17.7921C14.5958 17.8068 14.5225 17.999 14.5225 18.2266Z" fill="#263238"/>
<path d="M14.1871 15.3415C15.0267 15.1249 15.8151 14.7064 16.4986 14.1148C17.2683 16.9881 20.5457 17.0915 21.3651 17.0915C20.9358 14.9898 19.9044 13.5295 18.4855 13.1629C16.5641 12.6663 14.2971 13.2398 14.2971 13.2398C14.2761 13.8694 14.2185 14.703 14.1871 15.3415Z" fill="#263238"/>
<path d="M17.0348 17.1477L16.4982 17.0324C16.4982 17.0324 16.6369 17.4729 17.0348 17.1477Z" fill="#263238"/>
<path d="M14.8284 17.8039L14.2917 17.6916C14.2917 17.6916 14.4305 18.1291 14.8284 17.8039Z" fill="#263238"/>
<path d="M21.9123 11.7153C22.1793 10.4664 21.4547 9.19735 20.2938 8.88094C19.1329 8.56453 17.9755 9.32053 17.7085 10.5695C17.4415 11.8185 18.1662 13.0875 19.327 13.4039C20.4879 13.7203 21.6454 12.9643 21.9123 11.7153Z" fill="#263238"/>
<path d="M15.7967 14.5345L15.3622 15.1789C15.3622 15.1789 16.5114 14.9542 16.7653 14.0674C17.0192 13.1806 16.0611 13.8753 16.0611 13.8753L15.7967 14.5345Z" fill="#263238"/>
<path opacity="0.1" d="M19.9256 22.8648C19.6442 23.3878 19.2731 23.8421 18.834 24.2009C18.7304 23.9743 18.6039 23.762 18.457 23.5683C18.9749 23.418 19.47 23.1808 19.9256 22.8648Z" fill="black"/>
<path d="M14.0295 17.2157C14.0893 17.0053 14.213 16.8256 14.3787 16.7082C14.5445 16.5909 14.7416 16.5434 14.9353 16.5742" stroke="#263238" stroke-width="0.75" stroke-linecap="round" stroke-linejoin="round"/>
<path d="M20.6953 17.4521C20.767 17.3314 20.8485 17.2186 20.9388 17.1151C21.2451 16.7633 21.7451 16.3022 22.2084 16.5594C22.7686 16.855 22.6508 17.7566 22.4938 18.3005C22.3672 18.7873 22.0781 19.1996 21.6875 19.4504C21.1351 19.7726 20.3131 19.6012 20.3184 18.7616C20.3272 18.2928 20.4583 17.8372 20.6953 17.4521Z" fill="#FF8B7B"/>
<path d="M21.2792 16.4855C21.2792 16.4855 20.3629 18.2296 20.7373 19.7727C21.1116 21.3158 20.9048 22.0429 20.6457 22.8618C20.6457 22.8618 20.7478 20.5176 20.3184 19.6722C19.664 18.3804 20.5802 16.4796 20.5802 16.4796L21.2792 16.4855Z" fill="#263238"/>
<path d="M17.7389 11.2828C17.7389 11.2828 20.1106 11.602 21.5373 12.7017C21.5373 12.6869 20.2991 10.8275 17.7389 11.2828Z" fill="#407BFF"/>
<path d="M-11.5394 46.0228H3.38196C3.53349 46.0229 3.68306 45.9841 3.81931 45.9092C3.95555 45.8342 4.07489 45.7253 4.16825 45.5905C4.26162 45.4557 4.32656 45.2987 4.35814 45.1313C4.38973 44.9639 4.38713 44.7906 4.35053 44.6246L1.69611 32.679C1.64232 32.4349 1.51773 32.2182 1.34219 32.0634C1.16665 31.9085 0.95027 31.8245 0.72753 31.8247H-14.1938C-14.3453 31.8246 -14.4949 31.8635 -14.6312 31.9384C-14.7674 32.0133 -14.8867 32.1223 -14.9801 32.257C-15.0735 32.3918 -15.1384 32.5489 -15.17 32.7162C-15.2016 32.8836 -15.199 33.0569 -15.1624 33.2229L-12.5237 45.1685C-12.4693 45.4156 -12.3423 45.6345 -12.1636 45.7897C-11.9848 45.9448 -11.7648 46.027 -11.5394 46.0228Z" fill="#263238"/>
<path opacity="0.3" d="M-11.5394 46.0228H3.38196C3.53349 46.0229 3.68306 45.9841 3.81931 45.9092C3.95555 45.8342 4.07489 45.7253 4.16825 45.5905C4.26162 45.4557 4.32656 45.2987 4.35814 45.1313C4.38973 44.9639 4.38713 44.7906 4.35053 44.6246L1.69611 32.679C1.64232 32.4349 1.51773 32.2182 1.34219 32.0634C1.16665 31.9085 0.95027 31.8245 0.72753 31.8247H-14.1938C-14.3453 31.8246 -14.4949 31.8635 -14.6312 31.9384C-14.7674 32.0133 -14.8867 32.1223 -14.9801 32.257C-15.0735 32.3918 -15.1384 32.5489 -15.17 32.7162C-15.2016 32.8836 -15.199 33.0569 -15.1624 33.2229L-12.5237 45.1685C-12.4693 45.4156 -12.3423 45.6345 -12.1636 45.7897C-11.9848 45.9448 -11.7648 46.027 -11.5394 46.0228Z" fill="black"/>
<path d="M-12.3229 46.0228H2.59844C2.74998 46.0229 2.89955 45.9841 3.03579 45.9092C3.17204 45.8342 3.29137 45.7253 3.38474 45.5905C3.4781 45.4557 3.54304 45.2987 3.57463 45.1313C3.60621 44.9639 3.60361 44.7906 3.56702 44.6246L0.909973 32.679C0.856188 32.4349 0.731594 32.2182 0.556055 32.0634C0.380516 31.9085 0.164135 31.8245 -0.0586042 31.8247H-14.9799C-15.1315 31.8246 -15.281 31.8635 -15.4173 31.9384C-15.5535 32.0133 -15.6729 32.1223 -15.7662 32.257C-15.8596 32.3918 -15.9245 32.5489 -15.9561 32.7162C-15.9877 32.8836 -15.9851 33.0569 -15.9485 33.2229L-13.3098 45.1685C-13.2549 45.4158 -13.1274 45.6348 -12.9482 45.79C-12.769 45.9451 -12.5486 46.0271 -12.3229 46.0228Z" fill="#263238"/>
<path opacity="0.2" d="M-12.3229 46.0228H2.59844C2.74998 46.0229 2.89955 45.9841 3.03579 45.9092C3.17204 45.8342 3.29137 45.7253 3.38474 45.5905C3.4781 45.4557 3.54304 45.2987 3.57463 45.1313C3.60621 44.9639 3.60361 44.7906 3.56702 44.6246L0.909973 32.679C0.856188 32.4349 0.731594 32.2182 0.556055 32.0634C0.380516 31.9085 0.164135 31.8245 -0.0586042 31.8247H-14.9799C-15.1315 31.8246 -15.281 31.8635 -15.4173 31.9384C-15.5535 32.0133 -15.6729 32.1223 -15.7662 32.257C-15.8596 32.3918 -15.9245 32.5489 -15.9561 32.7162C-15.9877 32.8836 -15.9851 33.0569 -15.9485 33.2229L-13.3098 45.1685C-13.2549 45.4158 -13.1274 45.6348 -12.9482 45.79C-12.769 45.9451 -12.5486 46.0271 -12.3229 46.0228Z" fill="white"/>
<path d="M20.6793 38.3281C22.1251 38.3281 23.2971 36.7955 23.2971 34.9049C23.2971 33.0143 22.1251 31.4818 20.6793 31.4818C19.2335 31.4818 18.0615 33.0143 18.0615 34.9049C18.0615 36.7955 19.2335 38.3281 20.6793 38.3281Z" fill="#263238"/>
<path d="M26.468 33.8526L26.29 33.1402L30.2979 30.8847L30.434 31.739L26.468 33.8526Z" fill="#263238"/>
<path opacity="0.1" d="M26.2889 33.1402L25.0742 31.0857L27.0035 36.1761L26.2889 33.1402Z" fill="black"/>
<path d="M15.3776 35.4725L15.2677 34.7009L13.5687 33.9708V34.7009L15.3776 35.4725Z" fill="#263238"/>
<path opacity="0.1" d="M15.3787 35.4724C15.3447 35.3246 14.9285 32.0995 14.9285 32.0995V35.2803L15.3787 35.4724Z" fill="black"/>
<path d="M18.7634 25.75C18.7634 25.75 17.6168 28.641 20.3184 28.5494C23.0199 28.4578 23.7005 26.2052 23.8367 24.5291L22.9937 24.201C22.9937 24.201 22.5068 26.5659 20.6796 27.0359C18.8524 27.5059 19.0042 25.3539 19.0042 25.3539L18.7634 25.75Z" fill="#263238"/>
</g>
</svg>
